<svg width="763.622509765625px" height="158.01874999999998px" xmlns="http://www.w3.org/2000/svg" viewBox="-131.81125488281248 -4.0093749999999915 763.622509765625 158.01874999999998" style="background: rgba(0, 0, 0, 0);" preserveAspectRatio="xMidYMid"><defs><filter id="editing-golden" x="-100%" y="-100%" width="300%" height="300%"><feFlood flood-color="#806527" result="flood"></feFlood><feFlood flood-color="#0ea0ff" result="flood-light"></feFlood><feComposite operator="in" in="flood" in2="SourceAlpha" result="flood-comp"></feComposite><feGaussianBlur in="flood-comp" stdDeviation="3" result="blur"></feGaussianBlur><feOffset in="blur" dy="3" result="offset-blur"></feOffset><feComponentTransfer in="offset-blur" result="comp-blur"><feFuncA type="linear" slope="0.7" intercept="-0.1"></feFuncA></feComponentTransfer><feSpecularLighting surfaceScale="200" specularConstant="20" specularExponent="1" lighting-color="#fff" in="blur" result="specular"><fePointLight x="-250" y="-250" z="3500"></fePointLight></feSpecularLighting><feComponentTransfer in="specular" result="inspecular"><feFuncA type="linear" slope="-1" intercept="1"></feFuncA></feComponentTransfer><feComposite operator="in" in="flood-light" in2="inspecular" result="inspecular2"></feComposite><feComposite operator="in" in="inspecular2" in2="SourceAlpha" result="light"></feComposite><feMerge><feMergeNode in="comp-blur"></feMergeNode><feMergeNode in="SourceGraphic"></feMergeNode><feMergeNode in="light"></feMergeNode></feMerge></filter></defs><g filter="url(#editing-golden)"><g transform="translate(-18.23748779296875, 116.95031356811523)"><path d="M39.11-11.91L43.80-8.69L43.80-8.69Q40.92-4.20 35.91-1.54L35.91-1.54L35.91-1.54Q30.91 1.12 24.02 1.12L24.02 1.12L24.02 1.12Q18.70 1.12 14.26-0.63L14.26-0.63L14.26-0.63Q9.81-2.39 6.67-5.54L6.67-5.54L6.67-5.54Q3.52-8.69 1.76-13.04L1.76-13.04L1.76-13.04Q0-17.38 0-22.71L0-22.71L0-22.71Q0-27.88 1.61-32.30L1.61-32.30L1.61-32.30Q3.22-36.72 6.20-39.87L6.20-39.87L6.20-39.87Q9.18-43.02 13.50-44.80L13.50-44.80L13.50-44.80Q17.82-46.58 23.10-46.58L23.10-46.58L23.10-46.58Q25.20-46.58 27.39-46.09L27.39-46.09L27.39-46.09Q29.59-45.61 31.54-44.60L31.54-44.60L31.54-44.60Q33.50-43.60 35.06-42.21L35.06-42.21L35.06-42.21Q36.62-40.82 37.40-38.92L37.40-38.92L37.40-45.51L43.41-45.51L43.41-27.29L37.40-27.29L37.40-27.29Q37.40-30.32 36.30-32.81L36.30-32.81L36.30-32.81Q35.21-35.30 33.30-37.11L33.30-37.11L33.30-37.11Q31.40-38.92 28.76-39.92L28.76-39.92L28.76-39.92Q26.12-40.92 23.10-40.92L23.10-40.92L23.10-40.92Q18.99-40.92 15.94-39.50L15.94-39.50L15.94-39.50Q12.89-38.09 10.84-35.64L10.84-35.64L10.84-35.64Q8.79-33.20 7.74-29.91L7.74-29.91L7.74-29.91Q6.69-26.61 6.69-22.71L6.69-22.71L6.69-22.71Q6.69-18.80 7.89-15.50L7.89-15.50L7.89-15.50Q9.08-12.21 11.35-9.81L11.35-9.81L11.35-9.81Q13.62-7.42 16.82-6.01L16.82-6.01L16.82-6.01Q20.02-4.59 24.02-4.59L24.02-4.59L24.02-4.59Q29.10-4.59 33.06-6.59L33.06-6.59L33.06-6.59Q37.01-8.59 39.11-11.91L39.11-11.91ZM54.49-12.30L54.49-12.30L54.49-12.30Q54.49-16.60 56.64-19.51L56.64-19.51L56.64-19.51Q58.79-22.41 62.28-24.10L62.28-24.10L62.28-24.10Q65.77-25.78 70.29-26.54L70.29-26.54L70.29-26.54Q74.80-27.29 79.49-27.29L79.49-27.29L79.49-27.29Q81.30-27.29 82.74-27.25L82.74-27.25L82.74-27.25Q84.18-27.20 85.47-27.10L85.47-27.10L85.47-27.10Q86.77-27.00 88.09-26.86L88.09-26.86L88.09-26.86Q89.40-26.71 90.97-26.51L90.97-26.51L90.97-29.79L90.97-29.79Q90.97-33.11 89.53-35.25L89.53-35.25L89.53-35.25Q88.09-37.40 85.99-38.65L85.99-38.65L85.99-38.65Q83.89-39.89 81.59-40.41L81.59-40.41L81.59-40.41Q79.30-40.92 77.69-40.92L77.69-40.92L77.69-40.92Q72.61-40.92 68.31-39.55L68.31-39.55L68.31-39.55Q64.01-38.18 60.30-35.89L60.30-35.89L57.28-40.92L57.28-40.92Q61.38-43.41 66.48-45.00L66.48-45.00L66.48-45.00Q71.58-46.58 77.69-46.58L77.69-46.58L77.69-46.58Q81.40-46.58 84.99-45.63L84.99-45.63L84.99-45.63Q88.57-44.68 91.43-42.70L91.43-42.70L91.43-42.70Q94.29-40.72 96.00-37.50L96.00-37.50L96.00-37.50Q97.71-34.28 97.71-29.79L97.71-29.79L97.71 0L90.97 0L90.97-7.62L90.97-7.62Q89.21-5.42 86.99-3.76L86.99-3.76L86.99-3.76Q84.77-2.10 82.32-1.05L82.32-1.05L82.32-1.05Q79.88 0 77.44 0.56L77.44 0.56L77.44 0.56Q75 1.12 72.80 1.12L72.80 1.12L72.80 1.12Q63.77 1.12 59.13-2.34L59.13-2.34L59.13-2.34Q54.49-5.81 54.49-12.30ZM72.80-4.59L72.80-4.59L72.80-4.59Q77.00-4.59 80.35-5.83L80.35-5.83L80.35-5.83Q83.69-7.08 86.04-8.94L86.04-8.94L86.04-8.94Q88.38-10.79 89.67-12.89L89.67-12.89L89.67-12.89Q90.97-14.99 90.97-16.70L90.97-16.70L90.97-21.00L90.97-21.00Q87.70-21.48 84.69-21.53L84.69-21.53L84.69-21.53Q81.69-21.58 79.49-21.58L79.49-21.58L79.49-21.58Q75.88-21.58 72.53-21.09L72.53-21.09L72.53-21.09Q69.19-20.61 66.70-19.51L66.70-19.51L66.70-19.51Q64.21-18.41 62.70-16.65L62.70-16.65L62.70-16.65Q61.18-14.89 61.18-12.30L61.18-12.30L61.18-12.30Q61.18-9.42 63.99-7.01L63.99-7.01L63.99-7.01Q66.80-4.59 72.80-4.59ZM149.56-15.72L155.18-14.50L155.18-14.50Q154.39-7.32 149.54-3.10L149.54-3.10L149.54-3.10Q144.68 1.12 137.40 1.12L137.40 1.12L137.40 1.12Q133.40 1.12 130.08-0.20L130.08-0.20L130.08-0.20Q126.76-1.51 124.41-3.86L124.41-3.86L124.41-3.86Q122.07-6.20 120.78-9.50L120.78-9.50L120.78-9.50Q119.48-12.79 119.48-16.70L119.48-16.70L119.48-39.79L109.18-39.79L109.18-45.51L119.48-45.51L119.48-63.72L126.17-63.72L126.17-45.51L145.56-45.51L145.56-39.79L126.17-39.79L126.17-16.70L126.17-16.70Q126.17-14.21 126.98-12.01L126.98-12.01L126.98-12.01Q127.78-9.81 129.22-8.15L129.22-8.15L129.22-8.15Q130.66-6.49 132.71-5.54L132.71-5.54L132.71-5.54Q134.77-4.59 137.40-4.59L137.40-4.59L137.40-4.59Q142.38-4.59 145.73-7.69L145.73-7.69L145.73-7.69Q149.07-10.79 149.56-15.72L149.56-15.72ZM209.77-20.41L170.46-20.41L170.46-20.41Q171.19-13.18 175.73-8.89L175.73-8.89L175.73-8.89Q180.27-4.59 187.55-4.59L187.55-4.59L187.55-4.59Q192.68-4.59 196.68-6.69L196.68-6.69L196.68-6.69Q200.68-8.79 202.69-11.91L202.69-11.91L207.37-8.69L207.37-8.69Q203.96-3.91 199.22-1.39L199.22-1.39L199.22-1.39Q194.48 1.12 187.55 1.12L187.55 1.12L187.55 1.12Q182.28 1.12 177.88-0.63L177.88-0.63L177.88-0.63Q173.49-2.39 170.29-5.54L170.29-5.54L170.29-5.54Q167.09-8.69 165.33-13.04L165.33-13.04L165.33-13.04Q163.57-17.38 163.57-22.71L163.57-22.71L163.57-22.71Q163.57-27.88 165.16-32.25L165.16-32.25L165.16-32.25Q166.75-36.62 169.75-39.82L169.75-39.82L169.75-39.82Q172.75-43.02 177.05-44.80L177.05-44.80L177.05-44.80Q181.35-46.58 186.67-46.58L186.67-46.58L186.67-46.58Q192.48-46.58 196.83-44.63L196.83-44.63L196.83-44.63Q201.17-42.68 204.08-39.23L204.08-39.23L204.08-39.23Q206.98-35.79 208.37-31.01L208.37-31.01L208.37-31.01Q209.77-26.22 209.77-20.41L209.77-20.41ZM170.56-26.12L202.69-26.12L202.69-26.12Q201.56-33.59 197.27-37.26L197.27-37.26L197.27-37.26Q192.97-40.92 186.67-40.92L186.67-40.92L186.67-40.92Q183.45-40.92 180.71-39.87L180.71-39.87L180.71-39.87Q177.98-38.82 175.88-36.87L175.88-36.87L175.88-36.87Q173.78-34.91 172.36-32.15L172.36-32.15L172.36-32.15Q170.95-29.39 170.56-26.12L170.56-26.12ZM261.47-45.51L261.47-0.49L261.47-0.49Q261.47 4.20 259.86 7.86L259.86 7.86L259.86 7.86Q258.25 11.52 255.35 14.06L255.35 14.06L255.35 14.06Q252.44 16.60 248.51 17.94L248.51 17.94L248.51 17.94Q244.58 19.29 239.75 19.29L239.75 19.29L239.75 19.29Q232.96 19.29 228.20 16.75L228.20 16.75L228.20 16.75Q223.44 14.21 219.97 9.42L219.97 9.42L224.66 5.81L224.66 5.81Q226.76 8.98 230.71 11.13L230.71 11.13L230.71 11.13Q234.67 13.28 239.75 13.28L239.75 13.28L239.75 13.28Q246.68 13.28 250.71 9.79L250.71 9.79L250.71 9.79Q254.74 6.30 254.74-0.29L254.74-0.29L254.74-5.18L254.74-5.18Q248.78 0.10 241.16 0.10L241.16 0.10L241.16 0.10Q230.47 0.10 224.37-6.01L224.37-6.01L224.37-6.01Q218.26-12.11 218.26-22.71L218.26-22.71L218.26-22.71Q218.26-27.88 219.85-32.25L219.85-32.25L219.85-32.25Q221.44-36.62 224.39-39.82L224.39-39.82L224.39-39.82Q227.34-43.02 231.59-44.80L231.59-44.80L231.59-44.80Q235.84-46.58 241.16-46.58L241.16-46.58L241.16-46.58Q244.87-46.58 248.36-45.29L248.36-45.29L248.36-45.29Q251.86-43.99 254.74-41.41L254.74-41.41L254.74-45.51L261.47-45.51ZM254.74-11.72L254.74-34.91L254.74-34.91Q251.86-38.09 248.41-39.50L248.41-39.50L248.41-39.50Q244.97-40.92 241.16-40.92L241.16-40.92L241.16-40.92Q237.16-40.92 234.11-39.50L234.11-39.50L234.11-39.50Q231.05-38.09 229.05-35.64L229.05-35.64L229.05-35.64Q227.05-33.20 226.00-29.86L226.00-29.86L226.00-29.86Q224.95-26.51 224.95-22.71L224.95-22.71L224.95-22.71Q224.95-14.89 229.00-10.25L229.00-10.25L229.00-10.25Q233.06-5.62 241.16-5.62L241.16-5.62L241.16-5.62Q244.97-5.62 248.41-7.06L248.41-7.06L248.41-7.06Q251.86-8.50 254.74-11.72L254.74-11.72ZM319.63-22.61L319.63-22.61L319.63-22.61Q319.63-17.29 317.94-12.94L317.94-12.94L317.94-12.94Q316.26-8.59 313.11-5.49L313.11-5.49L313.11-5.49Q309.96-2.39 305.57-0.63L305.57-0.63L305.57-0.63Q301.17 1.12 295.75 1.12L295.75 1.12L295.75 1.12Q290.43 1.12 286.04-0.63L286.04-0.63L286.04-0.63Q281.64-2.39 278.49-5.49L278.49-5.49L278.49-5.49Q275.34-8.59 273.66-12.94L273.66-12.94L273.66-12.94Q271.97-17.29 271.97-22.61L271.97-22.61L271.97-22.61Q271.97-27.78 273.66-32.25L273.66-32.25L273.66-32.25Q275.34-36.72 278.49-39.87L278.49-39.87L278.49-39.87Q281.64-43.02 286.04-44.80L286.04-44.80L286.04-44.80Q290.43-46.58 295.75-46.58L295.75-46.58L295.75-46.58Q301.17-46.58 305.57-44.80L305.57-44.80L305.57-44.80Q309.96-43.02 313.11-39.87L313.11-39.87L313.11-39.87Q316.26-36.72 317.94-32.25L317.94-32.25L317.94-32.25Q319.63-27.78 319.63-22.61ZM312.94-22.61L312.94-22.61L312.94-22.61Q312.94-26.51 311.79-29.81L311.79-29.81L311.79-29.81Q310.64-33.11 308.40-35.60L308.40-35.60L308.40-35.60Q306.15-38.09 302.95-39.50L302.95-39.50L302.95-39.50Q299.76-40.92 295.75-40.92L295.75-40.92L295.75-40.92Q291.75-40.92 288.55-39.50L288.55-39.50L288.55-39.50Q285.35-38.09 283.15-35.60L283.15-35.60L283.15-35.60Q280.96-33.11 279.81-29.81L279.81-29.81L279.81-29.81Q278.66-26.51 278.66-22.61L278.66-22.61L278.66-22.61Q278.66-18.70 279.81-15.41L279.81-15.41L279.81-15.41Q280.96-12.11 283.15-9.72L283.15-9.72L283.15-9.72Q285.35-7.32 288.55-5.96L288.55-5.96L288.55-5.96Q291.75-4.59 295.75-4.59L295.75-4.59L295.75-4.59Q299.76-4.59 302.95-5.96L302.95-5.96L302.95-5.96Q306.15-7.32 308.40-9.72L308.40-9.72L308.40-9.72Q310.64-12.11 311.79-15.41L311.79-15.41L311.79-15.41Q312.94-18.70 312.94-22.61ZM372.75-44.58L370.56-39.11L370.56-39.11Q366.94-40.92 361.96-40.92L361.96-40.92L361.96-40.92Q357.86-40.92 354.64-39.16L354.64-39.16L354.64-39.16Q351.42-37.40 349.17-34.55L349.17-34.55L349.17-34.55Q346.92-31.69 345.73-28.00L345.73-28.00L345.73-28.00Q344.53-24.32 344.53-20.41L344.53-20.41L344.53-5.71L354.83-5.71L354.83 0L327.54 0L327.54-5.71L337.84-5.71L337.84-39.79L327.54-39.79L327.54-45.51L344.53-45.51L344.53-34.08L344.53-34.08Q349.12-46.58 361.96-46.58L361.96-46.58L361.96-46.58Q365.43-46.58 367.99-46.14L367.99-46.14L367.99-46.14Q370.56-45.70 372.75-44.58L372.75-44.58ZM409.42-63.72L409.42-54.59L400.34-54.59L400.34-63.72L409.42-63.72ZM418.51-5.71L418.51 0L391.21 0L391.21-5.71L401.51-5.71L401.51-39.79L391.21-39.79L391.21-45.51L408.25-45.51L408.25-5.71L418.51-5.71ZM482.71-20.41L443.41-20.41L443.41-20.41Q444.14-13.18 448.68-8.89L448.68-8.89L448.68-8.89Q453.22-4.59 460.50-4.59L460.50-4.59L460.50-4.59Q465.63-4.59 469.63-6.69L469.63-6.69L469.63-6.69Q473.63-8.79 475.63-11.91L475.63-11.91L480.32-8.69L480.32-8.69Q476.90-3.91 472.17-1.39L472.17-1.39L472.17-1.39Q467.43 1.12 460.50 1.12L460.50 1.12L460.50 1.12Q455.22 1.12 450.83-0.63L450.83-0.63L450.83-0.63Q446.44-2.39 443.24-5.54L443.24-5.54L443.24-5.54Q440.04-8.69 438.28-13.04L438.28-13.04L438.28-13.04Q436.52-17.38 436.52-22.71L436.52-22.71L436.52-22.71Q436.52-27.88 438.11-32.25L438.11-32.25L438.11-32.25Q439.70-36.62 442.70-39.82L442.70-39.82L442.70-39.82Q445.70-43.02 450-44.80L450-44.80L450-44.80Q454.30-46.58 459.62-46.58L459.62-46.58L459.62-46.58Q465.43-46.58 469.78-44.63L469.78-44.63L469.78-44.63Q474.12-42.68 477.03-39.23L477.03-39.23L477.03-39.23Q479.93-35.79 481.32-31.01L481.32-31.01L481.32-31.01Q482.71-26.22 482.71-20.41L482.71-20.41ZM443.51-26.12L475.63-26.12L475.63-26.12Q474.51-33.59 470.21-37.26L470.21-37.26L470.21-37.26Q465.92-40.92 459.62-40.92L459.62-40.92L459.62-40.92Q456.40-40.92 453.66-39.87L453.66-39.87L453.66-39.87Q450.93-38.82 448.83-36.87L448.83-36.87L448.83-36.87Q446.73-34.91 445.31-32.15L445.31-32.15L445.31-32.15Q443.90-29.39 443.51-26.12L443.51-26.12ZM535.60-12.60L535.60-12.60L535.60-12.60Q535.60-8.59 533.59-5.96L533.59-5.96L533.59-5.96Q531.59-3.32 528.44-1.76L528.44-1.76L528.44-1.76Q525.29-0.20 521.41 0.46L521.41 0.46L521.41 0.46Q517.53 1.12 513.82 1.12L513.82 1.12L513.82 1.12Q507.62 1.12 501.46-0.68L501.46-0.68L501.46-0.68Q495.31-2.49 490.82-5.42L490.82-5.42L493.80-11.18L493.80-11.18Q498.83-8.01 503.71-6.30L503.71-6.30L503.71-6.30Q508.59-4.59 513.82-4.59L513.82-4.59L513.82-4.59Q528.91-4.59 528.91-12.40L528.91-12.40L528.91-12.40Q528.91-14.31 527.66-15.50L527.66-15.50L527.66-15.50Q526.42-16.70 524.32-17.46L524.32-17.46L524.32-17.46Q522.22-18.21 519.51-18.65L519.51-18.65L519.51-18.65Q516.80-19.09 513.82-19.48L513.82-19.48L513.82-19.48Q510.01-20.02 506.25-20.75L506.25-20.75L506.25-20.75Q502.49-21.48 499.39-22.95L499.39-22.95L499.39-22.95Q496.29-24.41 494.41-26.86L494.41-26.86L494.41-26.86Q492.53-29.30 492.53-33.30L492.53-33.30L492.53-33.30Q492.53-36.72 494.26-39.21L494.26-39.21L494.26-39.21Q496.00-41.70 498.90-43.36L498.90-43.36L498.90-43.36Q501.81-45.02 505.71-45.80L505.71-45.80L505.71-45.80Q509.62-46.58 513.82-46.58L513.82-46.58L513.82-46.58Q519.82-46.58 524.56-45.19L524.56-45.19L524.56-45.19Q529.30-43.80 533.11-41.21L533.11-41.21L530.42-35.99L530.42-35.99Q526.51-38.72 522.51-39.82L522.51-39.82L522.51-39.82Q518.51-40.92 513.82-40.92L513.82-40.92L513.82-40.92Q511.72-40.92 509.16-40.55L509.16-40.55L509.16-40.55Q506.59-40.19 504.39-39.28L504.39-39.28L504.39-39.28Q502.20-38.38 500.71-36.94L500.71-36.94L500.71-36.94Q499.22-35.50 499.22-33.30L499.22-33.30L499.22-33.30Q499.22-31.40 500.46-30.25L500.46-30.25L500.46-30.25Q501.71-29.10 503.81-28.34L503.81-28.34L503.81-28.34Q505.91-27.59 508.62-27.15L508.62-27.15L508.62-27.15Q511.33-26.71 514.31-26.32L514.31-26.32L514.31-26.32Q518.02-25.78 521.80-25.05L521.80-25.05L521.80-25.05Q525.59-24.32 528.69-22.90L528.69-22.90L528.69-22.90Q531.79-21.48 533.69-19.04L533.69-19.04L533.69-19.04Q535.60-16.60 535.60-12.60Z" fill="#7f70f5"></path></g></g><style>text {
  font-size: 64px;
  font-family: Arial Black;
  dominant-baseline: central;
  text-anchor: middle;
}</style></svg>